<?xml version="1.0" standalone="no"?>
<!DOCTYPE svg PUBLIC "-//W3C//DTD SVG 20010904//EN"
 "http://www.w3.org/TR/2001/REC-SVG-20010904/DTD/svg10.dtd">
<svg version="1.0" xmlns="http://www.w3.org/2000/svg"
 width="900.000000pt" height="900.000000pt" viewBox="0 0 900.000000 900.000000"
 preserveAspectRatio="xMidYMid meet">

<g transform="translate(0.000000,900.000000) scale(0.100000,-0.100000)"
fill="#000000" stroke="none">
<path d="M1666 8279 c-468 -61 -828 -390 -929 -848 -21 -91 -22 -122 -22 -626
l0 -530 27 -47 c70 -118 240 -115 307 7 14 26 17 94 22 565 6 598 4 583 81
740 33 69 58 102 132 176 74 74 107 99 176 132 158 77 142 75 740 82 471 4
539 7 565 21 122 67 125 237 7 307 l-47 27 -495 1 c-272 1 -526 -2 -564 -7z"/>
<path d="M6200 8279 c-100 -30 -156 -139 -119 -236 11 -31 53 -78 84 -96 14
-9 176 -14 560 -18 605 -6 589 -4 745 -81 121 -60 249 -188 308 -308 75 -154
75 -150 81 -750 7 -595 2 -560 75 -615 85 -64 210 -33 262 66 22 43 21 1067
-2 1177 -88 429 -413 754 -849 849 -57 13 -169 16 -590 19 -339 2 -532 -1
-555 -7z"/>
<path d="M2784 5771 c-23 -10 -54 -36 -70 -57 l-29 -37 -3 -323 c-3 -307 -2
-325 17 -363 67 -130 240 -133 313 -6 22 39 23 48 26 331 4 325 0 354 -53 413
-54 60 -128 75 -201 42z"/>
<path d="M4585 5778 c-37 -13 -81 -53 -103 -93 -15 -27 -18 -107 -22 -800 -5
-749 -6 -771 -25 -804 -11 -19 -40 -45 -64 -58 -40 -21 -57 -23 -172 -23 -138
0 -169 -7 -212 -48 -41 -39 -57 -74 -57 -127 0 -86 49 -153 128 -175 54 -15
256 -12 335 5 201 42 375 216 416 413 7 36 11 304 11 818 0 731 -1 766 -19
802 -42 83 -130 120 -216 90z"/>
<path d="M6013 5779 c-45 -13 -98 -71 -112 -122 -8 -29 -11 -133 -9 -337 3
-333 7 -349 79 -397 93 -62 215 -28 260 71 17 37 19 70 19 346 0 275 -2 309
-19 345 -39 85 -123 121 -218 94z"/>
<path d="M825 3096 c-38 -17 -70 -48 -92 -89 -16 -29 -18 -79 -21 -577 -3
-570 3 -712 37 -840 63 -237 208 -449 411 -601 73 -55 256 -143 355 -170 78
-22 96 -23 640 -26 308 -2 570 -1 583 2 35 9 100 73 113 112 24 74 -10 166
-79 211 -24 15 -77 18 -562 23 -600 6 -597 6 -750 81 -67 34 -103 60 -171 128
-98 96 -150 181 -188 305 l-25 80 -6 631 -5 631 -28 36 c-52 68 -141 95 -212
63z"/>
<path d="M3333 3099 c-106 -32 -154 -179 -88 -268 32 -44 127 -119 229 -180
617 -373 1557 -335 2107 85 114 87 151 154 128 236 -16 60 -42 93 -92 117 -82
40 -137 24 -262 -74 -288 -227 -795 -320 -1250 -229 -192 39 -430 141 -540
233 -33 28 -72 57 -87 66 -36 20 -104 27 -145 14z"/>
<path d="M7965 3093 c-16 -8 -41 -25 -54 -37 -51 -46 -51 -43 -51 -659 0 -621
-4 -684 -55 -808 -74 -184 -240 -341 -425 -404 -118 -40 -195 -45 -701 -45
-521 0 -506 2 -561 -57 -82 -86 -55 -222 54 -279 41 -21 1052 -20 1165 1 222
42 411 145 570 308 154 158 242 326 288 545 22 105 23 1308 1 1350 -46 87
-153 127 -231 85z"/>
</g>
</svg>
